# This file uses centimeters as units for non-parametric coordinates.

mtllib Inside_Corner_LP.mtl
g default
v 0.000000 0.000000 -1.000000
v 0.000000 0.000000 -0.500000
v 0.000000 0.000000 0.000000
v 0.000000 1.000000 -1.000000
v 0.000000 1.000000 -0.500000
v 0.000000 0.600000 0.000000
v 3.000000 0.601421 0.000000
v 3.000000 0.000000 -0.000000
v 2.000000 1.000000 -1.000000
v 2.498518 1.000000 -0.498506
v 2.000000 0.000000 -1.000000
v 2.498518 0.000000 -0.498506
v 2.000000 1.000000 -3.000000
v 2.500000 1.000000 -3.000000
v 3.000000 0.600000 -3.000000
v 2.000000 0.000000 -3.000000
v 2.500000 0.000000 -3.000000
v 3.000000 0.000000 -3.000000
vt 0.801792 0.983660
vt 0.892967 0.983441
vt 0.528264 0.984315
vt 0.619440 0.984096
vt 0.984143 0.983223
vt 0.411502 0.984595
vt 0.411386 0.517361
vt 0.301975 0.517623
vt 0.285992 0.732260
vt 0.286236 0.846461
vt 0.095655 0.732666
vt 0.096062 0.923002
vt 0.191230 0.922799
vt 0.190823 0.732463
vt 0.302092 0.984856
vt 0.619362 0.672054
vt 0.528167 0.594954
vt 0.801714 0.671617
vt 0.892870 0.594080
vt 0.984027 0.516543
vt 0.096406 0.218022
vt 0.093881 0.123030
vt 0.283863 0.117980
vt 0.286388 0.212972
vt 0.167349 0.026019
vt 0.281338 0.022989
vt 0.801675 0.021533
vt 0.892851 0.021315
vt 0.892948 0.411604
vt 0.801753 0.333207
vt 0.984026 0.021097
vt 0.983495 0.488886
vt 0.302092 0.490518
vt 0.301975 0.022730
vt 0.411386 0.022468
vt 0.412332 0.490254
vt 0.619401 0.333643
vt 0.619323 0.021970
vt 0.528245 0.412478
vt 0.528148 0.022189
vn -1.000000 0.000000 0.000000
vn -1.000000 0.000000 0.000000
vn -1.000000 0.000000 0.000000
vn -1.000000 0.000000 0.000000
vn -1.000000 0.000000 0.000000
vn -1.000000 0.000000 0.000000
vn 0.000000 1.000000 0.000000
vn -0.000239 0.915552 0.402200
vn -0.000314 0.849645 0.527355
vn 0.000000 1.000000 0.000000
vn -0.000372 0.780864 0.624701
vn -0.000372 0.780864 0.624701
vn 0.000000 -0.000000 1.000000
vn 0.000000 -0.000000 1.000000
vn 0.000000 -0.000000 1.000000
vn 0.000000 -0.000000 1.000000
vn 0.000000 -1.000000 0.000000
vn 0.000000 -1.000000 0.000000
vn 0.000000 -1.000000 0.000000
vn 0.000000 -1.000000 0.000000
vn 0.000000 -1.000000 0.000000
vn 0.000000 -1.000000 0.000000
vn 0.000000 0.000000 -1.000000
vn 0.000000 0.000000 -1.000000
vn 0.000000 0.000000 -1.000000
vn 0.000000 0.000000 -1.000000
vn 0.000000 0.000000 -1.000000
vn 0.000000 0.000000 -1.000000
vn 0.000000 0.000000 -1.000000
vn 0.000000 0.000000 -1.000000
vn 0.000000 0.000000 -1.000000
vn 0.000000 0.000000 -1.000000
vn 0.000000 -1.000000 0.000000
vn 0.000000 -1.000000 0.000000
vn 0.000000 -1.000000 0.000000
vn 0.000000 -1.000000 0.000000
vn 0.000000 -1.000000 0.000000
vn 0.000000 -1.000000 0.000000
vn 1.000000 0.000000 0.000000
vn 1.000000 0.000000 0.000000
vn 1.000000 0.000000 0.000000
vn 1.000000 0.000000 0.000000
vn -1.000000 0.000000 -0.000000
vn -1.000000 0.000000 -0.000000
vn -1.000000 0.000000 -0.000000
vn -1.000000 0.000000 -0.000000
vn 0.000000 1.000000 0.000000
vn 0.526912 0.849920 -0.000029
vn 0.402186 0.915558 -0.000022
vn 0.000000 1.000000 0.000000
vn 0.623464 0.781853 -0.000034
vn 0.623463 0.781853 -0.000034
s 1
g Inside_Corner_LP
usemtl initialShadingGroup
f 1/11/1 2/14/2 5/13/3 4/12/4
f 2/14/2 3/9/5 6/10/6 5/13/3
s 2
f 4/4/7 5/3/8 10/17/9 9/16/10
f 5/3/8 6/6/11 7/7/12 10/17/9
s off
f 3/15/13 8/8/14 7/7/15 6/6/16
s 3
f 11/18/17 12/19/18 2/2/19 1/1/20
f 12/19/18 8/20/21 3/5/22 2/2/19
s off
f 9/16/23 11/18/24 1/1/25 4/4/26
s 4
f 13/21/27 14/22/28 17/23/29 16/24/30
f 14/22/28 15/25/31 18/26/32 17/23/29
s 5
f 16/27/33 17/28/34 12/29/35 11/30/36
f 17/28/34 18/31/37 8/32/38 12/29/35
s off
f 8/33/39 18/34/40 15/35/41 7/36/42
f 16/27/43 11/30/44 9/37/45 13/38/46
s 6
f 9/37/47 10/39/48 14/40/49 13/38/50
f 10/39/48 7/36/51 15/35/52 14/40/49
