# This file uses centimeters as units for non-parametric coordinates.

mtllib Outside_Bend_LP.mtl
g default
v 0.187776 0.000000 -2.976967
v 0.511975 0.000000 -2.594119
v 0.841055 0.000000 -2.216167
v 0.190215 1.000000 -2.979394
v 0.514949 1.000000 -2.597078
v 0.841055 0.600000 -2.216181
v 3.000000 1.000000 -3.999835
v 3.000000 1.000000 -3.499864
v 3.000000 0.600000 -3.000014
v 3.000000 0.000000 -3.999831
v 3.000000 0.000000 -3.499861
v 3.000000 0.000000 -2.999986
v -1.000000 0.000000 0.000000
v -0.500000 0.000000 0.000000
v 0.000000 0.000000 0.000002
v -1.000000 1.000000 0.000000
v -0.500000 1.000000 0.000000
v 0.000000 0.600000 0.000002
v -0.672952 1.000000 -1.651306
v -0.673267 0.000000 -1.650992
v -0.221473 0.000000 -1.449512
v 0.224768 0.000000 -1.242496
v 0.224768 0.600000 -1.242501
v -0.220642 1.000000 -1.450341
v -0.298759 0.000000 -2.373105
v -0.297461 1.000000 -2.374397
v 0.096763 1.000000 -2.075126
v 0.487974 0.600000 -1.772881
v 0.487974 0.000000 -1.772871
v 0.094917 0.000000 -2.073287
v -0.916998 1.000000 -0.842735
v -0.916998 0.000000 -0.842735
v -0.426605 0.000000 -0.745185
v 0.059224 0.000000 -0.643088
v 0.059224 0.600000 -0.643090
v -0.426605 1.000000 -0.745186
v -0.979199 1.000000 -0.423406
v -0.979199 0.000000 -0.423406
v -0.481607 0.000000 -0.374397
v 0.015599 0.000000 -0.324998
v 0.015599 0.600000 -0.324998
v -0.481607 1.000000 -0.374397
v -0.813994 0.000000 -1.253945
v -0.813994 1.000000 -1.253945
v -0.338264 1.000000 -1.106065
v 0.129278 0.600000 -0.950016
v 0.129278 0.000000 -0.950014
v -0.338656 0.000000 -1.105674
v -0.500075 1.000000 -2.026138
v -0.500855 0.000000 -2.025360
v -0.076487 0.000000 -1.773084
v 0.344669 0.000000 -1.517615
v 0.344669 0.600000 -1.517622
v -0.075169 1.000000 -1.774398
v -0.068704 0.000000 -2.691100
v -0.066789 1.000000 -2.693006
v 0.293859 1.000000 -2.349991
v 0.653731 0.600000 -2.006246
v 0.653731 0.000000 -2.006234
v 0.291456 0.000000 -2.347600
v 1.440755 1.000000 -3.764852
v 1.440755 0.000000 -3.764849
v 1.614099 0.000000 -3.284972
v 1.789146 0.000000 -2.806875
v 1.789146 0.600000 -2.806899
v 1.615389 1.000000 -3.286259
v 0.774350 1.000000 -3.446097
v 0.774350 0.000000 -3.446094
v 1.020935 0.000000 -2.999252
v 1.277078 0.000000 -2.561982
v 1.277078 0.600000 -2.562001
v 1.025024 1.000000 -3.003320
v 1.096864 0.000000 -3.622935
v 1.096864 1.000000 -3.622937
v 1.312093 1.000000 -3.161558
v 1.524091 0.600000 -2.697064
v 1.524091 0.000000 -2.697043
v 1.307497 0.000000 -3.156986
v 0.472524 1.000000 -3.232251
v 0.469349 0.000000 -3.229091
v 0.755449 0.000000 -2.811567
v 1.049110 0.000000 -2.401617
v 1.049110 0.600000 -2.401634
v 0.758991 1.000000 -2.815091
v 2.183711 0.000000 -3.943278
v 2.183711 1.000000 -3.943281
v 2.275617 1.000000 -3.447288
v 2.368158 0.600000 -2.952043
v 2.368158 0.000000 -2.952017
v 2.275617 0.000000 -3.447285
v 1.803249 1.000000 -3.871023
v 1.803249 0.000000 -3.871020
v 1.936548 0.000000 -3.380757
v 2.071017 0.000000 -2.891749
v 2.071017 0.600000 -2.891773
v 1.936548 1.000000 -3.380761
v 2.583364 0.000000 -3.985802
v 2.583364 1.000000 -3.985806
v 2.630904 1.000000 -3.486777
v 2.678621 0.600000 -2.988043
v 2.678621 0.000000 -2.988016
v 2.630904 0.000000 -3.486773
vt 0.801792 0.983660
vt 0.892967 0.983441
vt 0.528264 0.984315
vt 0.619440 0.984096
vt 0.984143 0.983223
vt 0.411502 0.984595
vt 0.093881 0.617369
vt 0.096406 0.712360
vt 0.411386 0.516807
vt 0.892851 0.515653
vt 0.801675 0.515872
vt 0.301975 0.517069
vt 0.167349 0.520358
vt 0.281338 0.517328
vt 0.619323 0.516309
vt 0.286388 0.707310
vt 0.283863 0.612319
vt 0.528148 0.516527
vt 0.984026 0.515435
vt 0.302092 0.984856
vt 0.095655 0.238328
vt 0.190823 0.238124
vt 0.191230 0.428461
vt 0.096062 0.428664
vt 0.285992 0.237921
vt 0.286236 0.352123
vt 0.619440 0.489758
vt 0.528264 0.489976
vt 0.528148 0.022189
vt 0.619323 0.021970
vt 0.411502 0.490256
vt 0.411386 0.022468
vt 0.801675 0.021533
vt 0.892851 0.021315
vt 0.892967 0.489103
vt 0.801792 0.489321
vt 0.984026 0.021097
vt 0.984143 0.488885
vt 0.302092 0.490518
vt 0.301975 0.022730
vt 0.619382 0.255864
vt 0.801733 0.255427
vt 0.892909 0.255209
vt 0.984085 0.254991
vt 0.302033 0.256624
vt 0.411444 0.256362
vt 0.528206 0.256083
vt 0.801704 0.138480
vt 0.619353 0.138917
vt 0.528177 0.139136
vt 0.411415 0.139415
vt 0.984056 0.138044
vt 0.302004 0.139677
vt 0.892880 0.138262
vt 0.619411 0.372811
vt 0.801762 0.372374
vt 0.892938 0.372156
vt 0.984114 0.371938
vt 0.302062 0.373571
vt 0.411473 0.373309
vt 0.528235 0.373030
vt 0.619426 0.431285
vt 0.801777 0.430848
vt 0.892953 0.430629
vt 0.984129 0.430411
vt 0.302077 0.432045
vt 0.411488 0.431783
vt 0.528250 0.431503
vt 0.801748 0.313901
vt 0.619396 0.314338
vt 0.528221 0.314556
vt 0.411459 0.314836
vt 0.984099 0.313464
vt 0.302048 0.315098
vt 0.892924 0.313682
vt 0.619367 0.197391
vt 0.801719 0.196954
vt 0.892894 0.196736
vt 0.984070 0.196517
vt 0.302019 0.198151
vt 0.411430 0.197889
vt 0.528192 0.197609
vt 0.801690 0.080007
vt 0.619338 0.080444
vt 0.528162 0.080662
vt 0.411400 0.080942
vt 0.984041 0.079570
vt 0.301990 0.081204
vt 0.892865 0.079789
vt 0.619382 0.750203
vt 0.801733 0.749766
vt 0.892909 0.749547
vt 0.984085 0.749329
vt 0.302033 0.750963
vt 0.411444 0.750701
vt 0.528206 0.750421
vt 0.619411 0.867149
vt 0.801762 0.866713
vt 0.892938 0.866494
vt 0.984114 0.866276
vt 0.302062 0.867910
vt 0.411473 0.867648
vt 0.528235 0.867368
vt 0.801748 0.808239
vt 0.619396 0.808676
vt 0.528221 0.808894
vt 0.411459 0.809174
vt 0.984099 0.807803
vt 0.302048 0.809436
vt 0.892924 0.808021
vt 0.619426 0.925623
vt 0.801777 0.925186
vt 0.892953 0.924968
vt 0.984129 0.924749
vt 0.302077 0.926383
vt 0.411488 0.926121
vt 0.528250 0.925841
vt 0.801704 0.632819
vt 0.619353 0.633256
vt 0.528177 0.633474
vt 0.411415 0.633754
vt 0.984056 0.632382
vt 0.302004 0.634016
vt 0.892880 0.632600
vt 0.619367 0.691729
vt 0.801719 0.691292
vt 0.892894 0.691074
vt 0.984070 0.690856
vt 0.302019 0.692489
vt 0.411430 0.692227
vt 0.528192 0.691947
vt 0.801690 0.574345
vt 0.619338 0.574782
vt 0.528162 0.575001
vt 0.411400 0.575280
vt 0.984041 0.573909
vt 0.301990 0.575542
vt 0.892865 0.574127
vn 0.000000 1.000000 -0.000000
vn 0.232978 0.936787 0.261060
vn 0.207556 0.942467 0.262060
vn 0.000000 1.000000 0.000000
vn 0.415194 0.781772 0.465239
vn 0.387505 0.783440 0.485861
vn 1.000000 0.000000 0.000000
vn 1.000000 0.000000 0.000000
vn 1.000000 0.000000 0.000000
vn 1.000000 0.000000 0.000000
vn 1.000000 0.000000 0.000000
vn 1.000000 0.000000 0.000000
vn 0.000000 -1.000000 0.000000
vn 0.000000 -1.000000 0.000000
vn 0.000000 -1.000000 0.000000
vn 0.000000 -1.000000 0.000000
vn 0.000000 -1.000000 0.000000
vn 0.000000 -1.000000 0.000000
vn 0.665392 0.000019 0.746494
vn 0.621401 0.000022 0.783493
vn 0.621400 0.000022 0.783493
vn 0.665392 0.000019 0.746494
vn -0.624270 -0.000289 -0.781208
vn -0.624520 -0.000289 -0.781009
vn -0.667129 -0.000208 -0.744942
vn -0.667129 -0.000208 -0.744942
vn 0.000000 0.000000 1.000000
vn -0.000002 0.000000 1.000000
vn -0.000001 0.000000 1.000000
vn 0.000000 0.000000 1.000000
vn -0.000005 0.000000 1.000000
vn -0.000005 0.000000 1.000000
vn 0.000000 1.000000 0.000000
vn 0.340961 0.939931 0.016571
vn 0.339241 0.940141 0.032414
vn 0.000000 1.000000 0.000000
vn 0.624557 0.780389 0.030355
vn 0.622780 0.780140 0.059394
vn 0.000000 -1.000000 0.000000
vn 0.000000 -1.000000 0.000000
vn 0.000000 -1.000000 0.000000
vn 0.000000 -1.000000 0.000000
vn 0.000000 -1.000000 0.000000
vn 0.000000 -1.000000 0.000000
vn 0.998850 0.000000 0.047943
vn 0.995786 0.000000 0.091705
vn 0.995786 0.000000 0.091705
vn 0.998850 0.000000 0.047943
vn -0.995185 0.000000 -0.098017
vn -0.995185 0.000000 -0.098017
vn -0.998795 0.000000 -0.049068
vn -0.998795 0.000000 -0.049068
vn -0.744293 0.000173 -0.667853
vn -0.778682 0.000270 -0.627419
vn -0.778569 0.000270 -0.627559
vn -0.744293 0.000173 -0.667853
vn 0.000000 -1.000000 0.000000
vn 0.000000 -1.000000 0.000000
vn 0.000000 -1.000000 0.000000
vn 0.000000 -1.000000 0.000000
vn 0.000000 -1.000000 0.000000
vn 0.000000 -1.000000 0.000000
vn 0.782208 0.000012 0.623018
vn 0.782208 0.000012 0.623017
vn 0.746145 0.000014 0.665783
vn 0.746145 0.000014 0.665783
vn 0.263558 0.941142 0.211633
vn 0.491416 0.778342 0.390762
vn 0.467409 0.779140 0.417696
vn 0.240555 0.946531 0.214970
vn 0.000000 1.000000 -0.000000
vn 0.000000 1.000000 0.000000
vn -0.887581 0.000323 -0.460652
vn -0.887610 0.000323 -0.460596
vn -0.926478 0.000182 -0.376350
vn -0.926469 0.000182 -0.376372
vn 0.000000 1.000000 0.000000
vn 0.318120 0.939947 0.123689
vn 0.304502 0.940013 0.153797
vn 0.000000 1.000000 0.000000
vn 0.589603 0.775099 0.227136
vn 0.565126 0.775105 0.282569
vn 0.934947 0.000003 0.354788
vn 0.934947 0.000003 0.354787
vn 0.895763 0.000005 0.444532
vn 0.895763 0.000005 0.444533
vn 0.000000 -1.000000 0.000000
vn 0.000000 -1.000000 0.000000
vn 0.000000 -1.000000 0.000000
vn 0.000000 -1.000000 0.000000
vn 0.000000 -1.000000 0.000000
vn 0.000000 -1.000000 0.000000
vn -0.957381 0.000048 -0.288829
vn -0.957381 0.000048 -0.288829
vn 0.000000 -1.000000 0.000000
vn 0.000000 -1.000000 0.000000
vn 0.000000 -1.000000 0.000000
vn 0.963914 0.000001 0.266213
vn 0.963914 0.000001 0.266212
vn 0.328102 0.939980 0.093738
vn 0.606410 0.776338 0.171946
vn 0.000000 1.000000 0.000000
vn -0.980785 0.000000 -0.195091
vn -0.980785 0.000000 -0.195091
vn 0.000000 -1.000000 0.000000
vn 0.000000 -1.000000 0.000000
vn 0.000000 -1.000000 0.000000
vn 0.983859 0.000000 0.178945
vn 0.983859 0.000000 0.178945
vn 0.616854 0.778410 0.116486
vn 0.334953 0.940088 0.063564
vn 0.000000 1.000000 0.000000
vn -0.838630 0.000372 -0.544701
vn -0.838692 0.000372 -0.544606
vn 0.000000 -1.000000 0.000000
vn 0.000000 -1.000000 0.000000
vn 0.000000 -1.000000 0.000000
vn 0.845130 0.000008 0.534561
vn 0.845130 0.000008 0.534562
vn 0.532437 0.776274 0.337504
vn 0.286272 0.940445 0.183334
vn 0.000000 1.000000 -0.000000
vn -0.033653 -0.000003 -0.999434
vn -0.069115 -0.000003 -0.997609
vn -0.069115 -0.000003 -0.997609
vn -0.033653 -0.000003 -0.999434
vn 0.000000 -1.000000 0.000000
vn 0.000000 -1.000000 0.000000
vn 0.000000 -1.000000 0.000000
vn 0.000000 -1.000000 0.000000
vn 0.000000 -1.000000 0.000000
vn 0.000000 -1.000000 0.000000
vn 0.075703 0.000044 0.997130
vn 0.075703 0.000044 0.997130
vn 0.037223 0.000045 0.999307
vn 0.037223 0.000045 0.999307
vn 0.025505 0.939350 0.342010
vn 0.045902 0.781551 0.622150
vn 0.022661 0.780765 0.624414
vn 0.012474 0.938995 0.343706
vn 0.000000 1.000000 0.000000
vn 0.000000 1.000000 0.000000
vn -0.331363 -0.000003 -0.943503
vn -0.331363 -0.000003 -0.943503
vn -0.431499 -0.000002 -0.902113
vn -0.431499 -0.000002 -0.902113
vn 0.000000 -1.000000 0.000000
vn 0.000000 -1.000000 0.000000
vn 0.000000 -1.000000 0.000000
vn 0.000000 -1.000000 0.000000
vn 0.000000 -1.000000 0.000000
vn 0.000000 -1.000000 0.000000
vn 0.431446 0.000032 0.902139
vn 0.431447 0.000032 0.902138
vn 0.335385 0.000036 0.942081
vn 0.335384 0.000036 0.942081
vn 0.144016 0.942622 0.301205
vn 0.266779 0.786868 0.556478
vn 0.205643 0.786601 0.582211
vn 0.111885 0.942010 0.316383
vn 0.000000 1.000000 0.000000
vn 0.000000 1.000000 0.000000
vn -0.531030 -0.000187 -0.847353
vn -0.531030 -0.000187 -0.847353
vn 0.000000 1.000000 0.000000
vn 0.176631 0.942522 0.283642
vn 0.328236 0.785592 0.524506
vn 0.528152 0.000027 0.849150
vn 0.528153 0.000027 0.849149
vn 0.000000 -1.000000 0.000000
vn 0.000000 -1.000000 0.000000
vn 0.000000 -1.000000 0.000000
vn -0.233521 -0.000003 -0.972352
vn -0.233521 -0.000003 -0.972352
vn 0.081413 0.940964 0.328571
vn 0.000000 1.000000 0.000000
vn 0.148280 0.785029 0.601451
vn 0.243150 0.000040 0.969989
vn 0.243150 0.000040 0.969989
vn 0.000000 -1.000000 0.000000
vn 0.000000 -1.000000 0.000000
vn 0.000000 -1.000000 0.000000
vn -0.145568 -0.000003 -0.989348
vn -0.145568 -0.000003 -0.989348
vn 0.000000 -1.000000 0.000000
vn 0.000000 -1.000000 0.000000
vn 0.000000 -1.000000 0.000000
vn 0.156487 0.000043 0.987680
vn 0.156486 0.000043 0.987680
vn 0.095142 0.783087 0.614591
vn 0.052614 0.939998 0.337098
vn 0.000000 1.000000 0.000000
s 1
g Outside_Bend_LP
usemtl initialShadingGroup
f 4/4/1 5/3/2 84/117/3 79/111/4
f 5/3/2 6/6/5 83/116/6 84/117/3
s 2
f 7/8/7 8/7/8 11/17/9 10/16/10
f 8/7/8 9/13/11 12/14/12 11/17/9
s 3
f 80/112/13 81/113/14 2/2/15 1/1/16
f 81/113/14 82/114/17 3/5/18 2/2/15
s 4
f 3/20/19 82/115/20 83/116/21 6/6/22
s 5
f 79/111/23 80/112/24 1/1/25 4/4/26
s 6
f 13/21/27 14/22/28 17/23/29 16/24/30
f 14/22/28 15/25/31 18/26/32 17/23/29
s 7
f 16/27/33 17/28/34 42/68/35 37/62/36
f 17/28/34 18/31/37 41/67/38 42/68/35
s 8
f 38/63/39 39/64/40 14/35/41 13/36/42
f 39/64/40 40/65/43 15/38/44 14/35/41
s 9
f 15/39/45 40/66/46 41/67/47 18/31/48
s 10
f 37/62/49 38/63/50 13/36/51 16/27/52
f 1/33/53 55/83/54 56/84/55 4/30/56
s 8
f 1/33/57 2/34/58 60/89/59 55/83/60
f 2/34/58 3/37/61 59/87/62 60/89/59
s 9
f 58/86/63 59/88/64 3/40/65 6/32/66
s 7
f 57/85/67 58/86/68 6/32/69 5/29/70
f 56/84/71 57/85/67 5/29/70 4/30/72
s 10
f 49/76/73 50/77/74 20/42/75 19/41/76
s 7
f 19/41/77 24/47/78 54/82/79 49/76/80
f 24/47/78 23/46/81 53/81/82 54/82/79
s 9
f 23/46/83 22/45/84 52/80/85 53/81/86
s 8
f 51/78/87 52/79/88 22/44/89 21/43/90
f 50/77/91 51/78/87 21/43/90 20/42/92
s 10
f 19/41/76 20/42/75 43/69/93 44/70/94
s 8
f 20/42/92 21/43/90 48/75/95 43/69/96
f 21/43/90 22/44/89 47/73/97 48/75/95
s 9
f 46/72/98 47/74/99 22/45/84 23/46/83
s 7
f 45/71/100 46/72/101 23/46/81 24/47/78
f 44/70/102 45/71/100 24/47/78 19/41/77
s 10
f 31/55/103 32/56/104 38/63/50 37/62/49
s 8
f 32/56/105 33/57/106 39/64/40 38/63/39
f 33/57/106 34/58/107 40/65/43 39/64/40
s 9
f 41/67/47 40/66/46 34/59/108 35/60/109
s 7
f 42/68/35 41/67/38 35/60/110 36/61/111
f 37/62/36 42/68/35 36/61/111 31/55/112
s 10
f 44/70/94 43/69/93 32/56/104 31/55/103
s 7
f 31/55/112 36/61/111 45/71/100 44/70/102
f 36/61/111 35/60/110 46/72/101 45/71/100
s 9
f 35/60/109 34/59/108 47/74/99 46/72/98
s 8
f 48/75/95 47/73/97 34/58/107 33/57/106
f 43/69/96 48/75/95 33/57/106 32/56/105
s 10
f 26/49/113 25/48/114 50/77/74 49/76/73
s 8
f 25/48/115 30/54/116 51/78/87 50/77/91
f 30/54/116 29/52/117 52/79/88 51/78/87
s 9
f 53/81/86 52/80/85 29/53/118 28/51/119
s 7
f 54/82/79 53/81/82 28/51/120 27/50/121
f 49/76/80 54/82/79 27/50/121 26/49/122
s 10
f 56/84/55 55/83/54 25/48/114 26/49/113
s 7
f 26/49/122 27/50/121 57/85/67 56/84/71
f 27/50/121 28/51/120 58/86/68 57/85/67
s 9
f 28/51/119 29/53/118 59/88/64 58/86/63
s 8
f 60/89/59 59/87/62 29/52/117 30/54/116
f 55/83/60 60/89/59 30/54/116 25/48/115
s 5
f 10/11/123 97/132/124 98/133/125 7/15/126
s 3
f 10/11/127 11/10/128 102/138/129 97/132/130
f 11/10/128 12/19/131 101/136/132 102/138/129
s 4
f 100/135/133 101/137/134 12/12/135 9/9/136
s 1
f 99/134/137 100/135/138 9/9/139 8/18/140
f 98/133/141 99/134/137 8/18/140 7/15/142
s 5
f 61/90/143 62/91/144 73/104/145 74/105/146
s 3
f 62/91/147 63/92/148 78/110/149 73/104/150
f 63/92/148 64/93/151 77/108/152 78/110/149
s 4
f 76/107/153 77/109/154 64/94/155 65/95/156
s 1
f 75/106/157 76/107/158 65/95/159 66/96/160
f 74/105/161 75/106/157 66/96/160 61/90/162
s 5
f 74/105/146 73/104/145 68/98/163 67/97/164
s 1
f 67/97/165 72/103/166 75/106/157 74/105/161
f 72/103/166 71/102/167 76/107/158 75/106/157
s 4
f 71/102/168 70/101/169 77/109/154 76/107/153
s 3
f 78/110/149 77/108/152 70/100/170 69/99/171
f 73/104/150 78/110/149 69/99/171 68/98/172
s 5
f 67/97/164 68/98/163 80/112/24 79/111/23
s 3
f 68/98/172 69/99/171 81/113/14 80/112/13
f 69/99/171 70/100/170 82/114/17 81/113/14
s 4
f 83/116/21 82/115/20 70/101/169 71/102/168
s 1
f 84/117/3 83/116/6 71/102/167 72/103/166
f 79/111/4 84/117/3 72/103/166 67/97/165
s 5
f 91/125/173 92/126/174 62/91/144 61/90/143
s 1
f 61/90/162 66/96/160 96/131/175 91/125/176
f 66/96/160 65/95/159 95/130/177 96/131/175
s 4
f 65/95/156 64/94/155 94/129/178 95/130/179
s 3
f 93/127/180 94/128/181 64/93/151 63/92/148
f 92/126/182 93/127/180 63/92/148 62/91/147
s 5
f 86/119/183 85/118/184 92/126/174 91/125/173
s 3
f 85/118/185 90/124/186 93/127/180 92/126/182
f 90/124/186 89/122/187 94/128/181 93/127/180
s 4
f 95/130/179 94/129/178 89/123/188 88/121/189
s 1
f 96/131/175 95/130/177 88/121/190 87/120/191
f 91/125/176 96/131/175 87/120/191 86/119/192
s 5
f 98/133/125 97/132/124 85/118/184 86/119/183
s 1
f 86/119/192 87/120/191 99/134/137 98/133/141
f 87/120/191 88/121/190 100/135/138 99/134/137
s 4
f 88/121/189 89/123/188 101/137/134 100/135/133
s 3
f 102/138/129 101/136/132 89/122/187 90/124/186
f 97/132/130 102/138/129 90/124/186 85/118/185
